<svg aria-hidden="true" style="position: absolute; width: 0; height: 0; overflow: hidden;" version="1.1" xmlns="http://www.w3.org/2000/svg" xmlns:xlink="http://www.w3.org/1999/xlink">
<defs>
<symbol id="icon-sports-club" viewBox="0 0 20 20">
<path d="M6 13.5l4 2.5 4-2.5v-8.5h-8v8.5zM4.5 10c0-1.105-0.896-2-2-2s-2 0.895-2 2c0 1.105 0.896 2 2 2s2-0.895 2-2zM17.5 8c-1.104 0-2 0.895-2 2s0.896 2 2 2 2-0.895 2-2c0-1.105-0.896-2-2-2zM4.485 6.199c1.255-1.815 3.317-2.899 5.515-2.899 2.158 0 4.198 1.056 5.456 2.823 0.449 0.629 1.323 0.776 1.952 0.329 0.63-0.448 0.777-1.323 0.329-1.953-1.782-2.504-4.675-3.999-7.737-3.999-3.117 0-6.040 1.535-7.817 4.107-0.439 0.636-0.28 1.508 0.355 1.948 0.637 0.438 1.508 0.279 1.947-0.356zM15.456 13.877c-1.258 1.768-3.298 2.823-5.456 2.823-2.198 0-4.26-1.084-5.515-2.899-0.439-0.636-1.311-0.794-1.947-0.356-0.636 0.44-0.795 1.312-0.355 1.948 1.777 2.572 4.7 4.107 7.817 4.107 3.062 0 5.955-1.495 7.737-3.999 0.448-0.63 0.301-1.504-0.329-1.953-0.629-0.447-1.503-0.3-1.952 0.329z"></path>
</symbol>
<symbol id="icon-redo2" viewBox="0 0 32 32">
<path d="M18 7.762v-7.762l12 12-12 12v-7.932c-13.961-0.328-13.362 9.493-9.808 15.932-8.772-9.482-6.909-24.674 9.808-24.238z"></path>
</symbol>
<symbol id="icon-menu" viewBox="0 0 32 32">
<path d="M2 6h28v6h-28zM2 14h28v6h-28zM2 22h28v6h-28z"></path>
</symbol>
</defs>
</svg>
